<svg width="25" height="25" viewBox="0 0 30 30" fill="none" xmlns="http://www.w3.org/2000/svg">
<path fill-rule="evenodd" clip-rule="evenodd" d="M15 0C6.71573 0 0 6.71573 0 15C0 23.2843 6.71573 30 15 30C23.2843 30 30 23.2843 30 15C30 6.71573 23.2843 0 15 0ZM11.7016 7.0483C12.5549 7.00947 12.8276 6.99997 15.0003 6.99997H14.9978C17.1711 6.99997 17.4428 7.00947 18.2961 7.0483C19.1478 7.0873 19.7295 7.22214 20.2395 7.41997C20.7662 7.62414 21.2112 7.89748 21.6562 8.34248C22.1012 8.78716 22.3745 9.23349 22.5795 9.75966C22.7762 10.2683 22.9112 10.8497 22.9512 11.7014C22.9895 12.5547 22.9995 12.8274 22.9995 15.0001C22.9995 17.1727 22.9895 17.4447 22.9512 18.2981C22.9112 19.1494 22.7762 19.7309 22.5795 20.2398C22.3745 20.7658 22.1012 21.2121 21.6562 21.6568C21.2117 22.1018 20.766 22.3758 20.24 22.5801C19.731 22.778 19.149 22.9128 18.2973 22.9518C17.444 22.9906 17.1721 23.0001 14.9993 23.0001C12.8267 23.0001 12.5542 22.9906 11.7009 22.9518C10.8494 22.9128 10.2679 22.778 9.75887 22.5801C9.23304 22.3758 8.7867 22.1018 8.34219 21.6568C7.89735 21.2121 7.62402 20.7658 7.41952 20.2396C7.22185 19.7309 7.08701 19.1496 7.04785 18.2979C7.00918 17.4446 6.99951 17.1727 6.99951 15.0001C6.99951 12.8274 7.00951 12.5545 7.04768 11.7012C7.08601 10.8498 7.22101 10.2683 7.41935 9.7595C7.62435 9.23349 7.89769 8.78716 8.34269 8.34248C8.78736 7.89765 9.2337 7.62431 9.75987 7.41997C10.2685 7.22214 10.8499 7.0873 11.7016 7.0483Z" fill="#808191"/>
<path fill-rule="evenodd" clip-rule="evenodd" d="M14.2821 8.44164C14.4215 8.44142 14.5714 8.44149 14.7332 8.44156L14.9998 8.44164C17.1358 8.44164 17.389 8.4493 18.2325 8.48764C19.0125 8.5233 19.4359 8.65364 19.7179 8.76314C20.0912 8.90814 20.3574 9.08148 20.6372 9.36148C20.9172 9.64148 21.0905 9.90815 21.2359 10.2815C21.3454 10.5632 21.4759 10.9865 21.5114 11.7665C21.5497 12.6098 21.558 12.8632 21.558 14.9982C21.558 17.1332 21.5497 17.3866 21.5114 18.2299C21.4757 19.0099 21.3454 19.4333 21.2359 19.7149C21.0909 20.0883 20.9172 20.3541 20.6372 20.6339C20.3572 20.9139 20.0914 21.0873 19.7179 21.2323C19.4362 21.3423 19.0125 21.4723 18.2325 21.5079C17.3892 21.5463 17.1358 21.5546 14.9998 21.5546C12.8636 21.5546 12.6104 21.5463 11.7671 21.5079C10.9871 21.4719 10.5638 21.3416 10.2816 21.2321C9.90825 21.0871 9.64159 20.9138 9.36158 20.6338C9.08158 20.3538 8.90824 20.0878 8.76291 19.7143C8.65341 19.4326 8.52291 19.0092 8.48741 18.2292C8.44907 17.3859 8.44141 17.1326 8.44141 14.9962C8.44141 12.8598 8.44907 12.6078 8.48741 11.7645C8.52307 10.9845 8.65341 10.5612 8.76291 10.2792C8.90791 9.90582 9.08158 9.63915 9.36158 9.35915C9.64159 9.07914 9.90825 8.90581 10.2816 8.76047C10.5636 8.65047 10.9871 8.52047 11.7671 8.48464C12.5051 8.4513 12.7911 8.4413 14.2821 8.43964V8.44164ZM19.2725 9.7698C18.7425 9.7698 18.3125 10.1993 18.3125 10.7295C18.3125 11.2595 18.7425 11.6895 19.2725 11.6895C19.8025 11.6895 20.2325 11.2595 20.2325 10.7295C20.2325 10.1995 19.8025 9.76947 19.2725 9.76947V9.7698ZM10.8936 15C10.8936 12.7312 12.733 10.8918 15.0018 10.8917C17.2706 10.8917 19.1096 12.7312 19.1096 15C19.1096 17.2689 17.2708 19.1076 15.0019 19.1076C12.7331 19.1076 10.8936 17.2689 10.8936 15Z" fill="#808191"/>
<path d="M15.0026 12.3335C16.4753 12.3335 17.6693 13.5273 17.6693 15.0002C17.6693 16.4729 16.4753 17.6669 15.0026 17.6669C13.5298 17.6669 12.3359 16.4729 12.3359 15.0002C12.3359 13.5273 13.5298 12.3335 15.0026 12.3335Z" fill="#808191"/>
</svg>
