<svg width="25" height="25" viewBox="0 0 30 30" fill="none" xmlns="http://www.w3.org/2000/svg">
<path fill-rule="evenodd" clip-rule="evenodd" d="M15 0C6.71573 0 0 6.71573 0 15C0 23.2843 6.71573 30 15 30C23.2843 30 30 23.2843 30 15C30 6.71573 23.2843 0 15 0ZM14.5822 12.7112L14.5508 12.1921C14.4563 10.8469 15.2852 9.61814 16.5967 9.14148C17.0794 8.972 17.8978 8.95081 18.4329 9.09911C18.6427 9.16266 19.0414 9.37451 19.3247 9.56518L19.8388 9.91473L20.4054 9.73466C20.7202 9.63933 21.1398 9.48044 21.3287 9.37451C21.5071 9.27918 21.6645 9.22622 21.6645 9.258C21.6645 9.43807 21.2762 10.0524 20.951 10.3914C20.5103 10.8681 20.6362 10.9104 21.5281 10.5927C22.0632 10.4126 22.0737 10.4126 21.9687 10.6138C21.9058 10.7198 21.5805 11.0905 21.2343 11.4295C20.6467 12.0121 20.6152 12.0756 20.6152 12.5629C20.6152 13.3149 20.2585 14.8826 19.9018 15.7406C19.2408 17.3507 17.8243 19.0137 16.4079 19.8505C14.4144 21.0263 11.7598 21.3229 9.52499 20.6344C8.78005 20.4013 7.5 19.8082 7.5 19.7022C7.5 19.6705 7.88821 19.6281 8.36036 19.6175C9.34663 19.5963 10.3329 19.3209 11.1723 18.8336L11.7388 18.4947L11.0883 18.2722C10.165 17.9545 9.33613 17.2236 9.12629 16.5351C9.06334 16.3126 9.08432 16.302 9.67188 16.302L10.2804 16.2914L9.76631 16.0478C9.15777 15.7406 8.60168 15.2216 8.32888 14.692C8.12953 14.3106 7.87772 13.3467 7.95116 13.2726C7.97215 13.2408 8.19248 13.3043 8.4443 13.3891C9.16826 13.6539 9.26269 13.5903 8.843 13.1455C8.05609 12.3404 7.81477 11.1435 8.19248 10.0101L8.37085 9.50163L9.06334 10.1901C10.4798 11.5778 12.148 12.404 14.0576 12.6476L14.5822 12.7112Z" fill="#808191"/>
</svg>
